# xmcd CD database file
#
# Track frame offsets:
#	150
#	2700
#	42075
#	65362
#	88051
#	108826
#	147755
#	175961
#	201455
#	238653
#
# Disc length: 3609 seconds
#
# Revision: 0
# Processed by: cddbd v1.5.2PL0 Copyright (c) Steve Scherf et al.
# Submitted via: CDex 1.50
#
DISCID=830e170a
DTITLE=Raphael Wressnig - Captured Live
DYEAR=2016
DGENRE=Jazz
TTITLE0=Intro
TTITLE1=Slivovitz for Joe
TTITLE2=Soul-jazz shuffle
TTITLE3=All that i´ve got (feat. Deitra Farr)
TTITLE4=Wichita lineman
TTITLE5=Mustard greens
TTITLE6=Soulful strut
TTITLE7=A change is gonna come
TTITLE8=Banana boogaloo
TTITLE9=It´s your thing
EXTD=YEAR: 2016
EXTT0=
EXTT1=
EXTT2=
EXTT3=
EXTT4=
EXTT5=
EXTT6=
EXTT7=
EXTT8=
EXTT9=
PLAYORDER=
